<?xml version="1.0" encoding="UTF-8"?>
<!DOCTYPE svg PUBLIC "-//W3C//DTD SVG 1.1//EN" "http://www.w3.org/Graphics/SVG/1.1/DTD/svg11.dtd">
<svg xmlns="http://www.w3.org/2000/svg" version="1.1" width="1125px" height="944px" style="shape-rendering:geometricPrecision; text-rendering:geometricPrecision; image-rendering:optimizeQuality; fill-rule:evenodd; clip-rule:evenodd" xmlns:xlink="http://www.w3.org/1999/xlink">


<g><path fill="#b5b4b4" d="M 252.07,159.07 c 1.8,0.78 3.99,3.46 4.6,5.36 c -0.37,0.96 -1.03,0.25 -1.68,0 c -1.66,-1.36 -3.29,-2.76 -4.88,-4.19 c 1.07,0.24 1.72,-0.14 1.96,-1.17 Z M 829.95,159.15 c 0.05,0.66 0.11,1.31 0.18,1.97 c 0.11,1.16 -3.47,4.39 -4.25,3.35 c -0.28,-1.7 2.76,-4.4 4.07,-5.32 Z"/></g>
<g><path fill="#b7b5b6" d="M 784.6,112.91 c -0.24,0.69 -0.03,1.14 0.64,1.37 c 1.12,-0.59 2.31,-0.96 3.55,-1.13 c -2.47,1.44 -4.76,3.15 -6.86,5.11 c -1.62,0.8 -2.03,0.39 -1.25,-1.21 c 1.25,-1.43 2.56,-2.81 3.92,-4.14 Z"/></g>
<g><path fill="#8e8e8e" d="M 652.94,369.19 c -0.42,0.72 -0.25,1.26 0.52,1.62 c 3.06,0.32 5.53,0.64 7.63,3.09 c -1.62,-0.42 -3.17,-1.02 -4.66,-1.81 c -1.86,-0.28 -3.72,-0.48 -5.59,-0.58 c -1.23,-0.71 0.02,-3.05 2.1,-2.32 Z"/></g>
<g><path fill="#636363" d="M 306.91,521.78 c -0.47,-0.01 -0.77,0.22 -0.88,0.67 c 0.57,0.86 1.19,1.68 1.86,2.48 c -1.92,-0.02 -3.72,-2.99 -5.36,-3.98 c -1.66,-1.63 -1.85,-3.43 0.89,-1.8 c 1.21,0.88 2.37,1.76 3.49,2.63 Z"/></g>
<g><path fill="#929292" d="M 691.73,416.32 c -0.74,0.12 -3.75,-0.75 -3.65,0.58 c -0.77,-0.25 -6.28,-0.71 -4.27,-2.5 c 2.51,0.37 5.03,0.71 7.57,1.01 c 0.33,0.22 0.44,0.52 0.35,0.91 Z"/></g>
<g><path fill="#888888" d="M 318.69,371.08 c -2.17,-2.67 -1.13,-3.56 -3.58,-0.09 c 0.24,-1.06 0.37,-2.14 0.38,-3.22 c 0.9,-1.43 1.84,-1.44 2.82,-0.03 c 0.26,1.09 0.38,2.21 0.38,3.34 Z"/></g>
<g><path fill="#cacaca" d="M 845.73,206.87 c -0.51,2.07 0.26,2.87 2.31,2.37 c -1.58,1.11 -3.17,2.2 -4.77,3.28 c -1.42,0.77 -1.43,-0.77 -0.78,-1.59 c 1.21,-1.25 2.28,-2.61 3.24,-4.06 Z"/></g>
<g><path fill="#858585" d="M 233.94,426.33 c -0.91,0.45 -1.04,1.03 -0.39,1.73 c 1.67,0.12 3.15,0.72 4.43,1.79 c -2.29,-0.41 -4.56,-0.89 -6.81,-1.45 c -1.56,-1.83 1.37,-2.61 2.77,-2.07 Z"/></g>
<g><path fill="#898989" d="M 394.1,416.79 c -0.55,-0.48 -1.19,-0.76 -1.92,-0.86 c 0.06,-0.32 0.24,-0.55 0.55,-0.67 c 1.87,-0.2 3.71,-0.49 5.54,-0.87 c 0.44,0.15 0.58,0.45 0.44,0.89 c -1.27,1.26 -2.81,1.76 -4.61,1.51 Z"/></g>
<g><path fill="#b4b3b4" d="M 299.3,115.09 c 1.12,0.27 4.74,3.63 3.11,4.51 c -1.84,-0.6 -3.33,-1.69 -4.47,-3.25 c 0.74,-0.11 1.19,-0.53 1.36,-1.26 Z"/></g>
<g><path fill="#aeaeae" d="M 238.04,209.12 c 1.23,0.14 4.14,4.3 2.43,4.4 c -1.77,-0.75 -3.24,-1.87 -4.41,-3.39 c 1.04,0.33 2.67,0.69 1.98,-1.01 Z"/></g>
<g><path fill="#010101" stroke="#010101" stroke-width="0.5" d="M 236.06,210.13 c 1.17,1.52 2.64,2.64 4.41,3.39 c 1.71,-0.1 -1.2,-4.26 -2.43,-4.4 c -14.51,-19.48 -33.91,-33.76 -57.4,-40.28 c -0.46,-0.28 -0.67,-0.69 -0.62,-1.23 c 3.67,-7.77 10.72,-16.19 15.76,-23.27 c 2.18,-2.16 4.2,-4.44 6.08,-6.84 c 9.82,-0.07 40.66,15.22 48.25,22.74 c 1.59,1.43 3.22,2.83 4.88,4.19 c 0.65,0.25 1.31,0.96 1.68,0 c -0.61,-1.9 -2.8,-4.58 -4.6,-5.36 c -9.84,-12.72 -24.92,-26.65 -37.86,-35.93 c -1.96,-2.29 -0.17,-2.86 1.34,-4.12 c 13.44,-14.89 27.82,-28.83 43.11,-41.81 c 0.46,-0.34 0.98,-0.54 1.55,-0.58 c 0.82,1.37 1.83,2.6 3.05,3.67 c 2.99,8.51 26.56,31.36 34.68,36.05 c 1.14,1.56 2.63,2.65 4.47,3.25 c 1.63,-0.88 -1.99,-4.24 -3.11,-4.51 c -12.06,-15.91 -20.46,-28.34 -23.96,-48.77 c -0.82,-4.28 13.24,-11.38 15.95,-14.58 c 3.93,-2.44 10.49,-6.07 13.5,-9.42 c 0.49,-0.1 0.97,-0.07 1.44,0.1 c -0.14,1.38 0,2.74 0.41,4.09 c 6.49,22.04 19.94,42.23 39.36,54.96 c 0.85,0.67 2.93,0.78 2.36,-0.86 c -0.49,-0.67 -1.03,-1.29 -1.63,-1.87 c -3.52,-7.08 -7.15,-14.09 -10.89,-21.05 c -5.34,-15.22 -9.87,-28.83 -11.65,-45.17 c 0.33,-3.42 9.36,-6.56 11.71,-9.17 c 5.17,-2.67 10.23,-5.57 15.18,-8.68 c 1.02,-0.2 4.05,-1.7 4.76,-0.97 c 1.03,7.89 2.19,15.76 3.49,23.62 c 8.71,46.35 34,84.56 64.1,119.81 c 15.09,14.12 29.2,40.01 13.69,58.68 c -28.23,27.98 -56.46,55.97 -84.32,84.31 c -20.97,18.58 -50.25,-4.56 -65.64,-19.78 c -14.6,-12.47 -29.13,-22.84 -45.61,-32.41 c -28.54,-15.37 -55.71,-26.39 -88.57,-29.36 c -0.94,-0.16 -3.22,-0.37 -2.52,-1.92 c 3.26,-7.33 7.54,-14.29 11.35,-21.36 c 2.63,-1.89 3.95,-8.07 7.68,-7.67 c 21.75,1.58 39.85,8.55 59.25,18.19 c 2.33,1.65 4.76,3.1 7.32,4.32 Z M 784.6,112.91 c -1.36,1.33 -2.67,2.71 -3.92,4.14 c -0.78,1.6 -0.37,2.01 1.25,1.21 c 2.1,-1.96 4.39,-3.67 6.86,-5.11 c 4.25,-3.7 8.41,-7.48 12.5,-11.36 c 7.03,-7.08 12.61,-14.77 18.53,-22.47 c 0.85,-1.88 0.87,-2.92 3.32,-2.81 c 8.92,8.07 17.8,16.2 26.66,24.39 c 5.86,6.06 11.68,12.18 17.46,18.36 c 1.84,1.48 1.84,2.96 0.01,4.42 c -13.85,10.29 -26.26,22.09 -37.32,35.47 c -1.31,0.92 -4.35,3.62 -4.07,5.32 c 0.78,1.04 4.36,-2.19 4.25,-3.35 c 4.76,-3.02 9.46,-6.15 14.12,-9.4 c 6.23,-3.06 31.05,-15.97 36.54,-13.77 c 4.92,4.97 9.58,12.88 14.3,18.27 c 2.2,3.53 4.48,6.97 6.84,10.32 c 0.48,0.96 0.41,1.85 -0.19,2.67 c -4.62,0.64 -10.28,3.39 -14.87,4.89 c -16.96,7.65 -29.47,18.41 -41.14,32.77 c -0.96,1.45 -2.03,2.81 -3.24,4.06 c -0.65,0.82 -0.64,2.36 0.78,1.59 c 1.6,-1.08 3.19,-2.17 4.77,-3.28 c 20.86,-12.43 41.18,-18.93 65.44,-22.01 c 2.88,-0.07 7.22,9.64 9.13,11.69 c 1.84,4.79 8.46,13.29 8.83,18.05 c 0.09,0.54 -0.04,1 -0.41,1.39 c -3.36,0.43 -10.06,0.3 -12.73,2.16 c -5.95,-0.79 -30.84,6.88 -37.95,9.33 c -30.44,11.1 -57.88,27.73 -82.62,48.38 c -14.98,14.05 -31.85,30.06 -54.04,28.39 c -12.97,0.32 -27.25,-22.27 -37.4,-29.51 c -21.15,-22.7 -44.76,-43.6 -65.5,-66.4 c -6.17,-14.53 0.31,-29.97 7.97,-42.43 c 18.61,-20.58 34.34,-39.93 48.37,-63.81 c 0.41,-2.78 1.74,-2.77 2.92,-4.94 c 14.79,-27.38 23.74,-53.55 26.01,-85.02 c 0.2,-1.16 0.85,-1.5 1.95,-1.04 c 10.08,5.09 19.97,10.16 29.18,16.69 c 2.61,4.13 -4.29,29.79 -6.58,35.32 c -0.52,3.77 -9.7,23.52 -12.45,28.24 c -1.53,2.28 -3,4.59 -4.42,6.95 c -0.11,1.19 0.42,1.65 1.61,1.39 c 19.62,-11.76 35.86,-36.5 40.81,-58.42 c 0.17,-0.17 0.34,-0.33 0.5,-0.49 c 1.19,0.24 2.33,0.64 3.43,1.21 c 4.47,3.39 11.67,8.38 16.54,11.43 c 2.9,3.41 7.08,4.81 9.92,8.1 c 1.71,6.42 -7.11,26.26 -10.41,32.82 c -3.93,5.2 -7.31,11.18 -11.54,16.2 Z M 354.32,316.64 c 0,-1.08 0.33,-2.05 1,-2.88 c 30.62,-31.35 61.95,-62.02 92.82,-93.12 c 1.82,-1.07 4.29,-5.74 6.68,-3.79 c 8.08,8.96 16.71,11.83 13.58,26.29 c -6.68,9.84 -21.83,22.26 -30.31,31.62 c -0.51,0.46 -0.69,1.04 -0.55,1.72 c 18.69,18.8 37.36,37.65 56.01,56.55 c 15.76,15.34 31.39,30.8 46.89,46.4 c 1.03,0.13 1.91,-0.17 2.65,-0.93 c 33.76,-33.91 67.54,-67.6 101.51,-101.39 c 0.53,-1.03 0.35,-1.93 -0.54,-2.69 c -9.44,-9.23 -18.84,-18.47 -28.22,-27.73 c -4.44,-7.61 -3.44,-15.27 2.91,-21.33 c 3,-3.02 6.02,-5.99 9.05,-8.91 c 1.04,-0.26 2.02,-0.11 2.94,0.44 c 30.09,31.14 61.21,61.42 91.93,91.86 c 1.26,1.76 2.76,3.27 4.5,4.55 c 0.8,0.83 0.85,1.71 0.15,2.64 c -7.81,8.83 -18.83,20.59 -31.1,11.17 c -9.07,-8.91 -18.06,-17.89 -27,-26.93 c -0.47,-0.46 -1.03,-0.63 -1.68,-0.52 c -34.34,34.1 -68.69,68.2 -103.03,102.31 c -0.4,0.67 -0.34,1.3 0.19,1.89 c 19.53,19.73 39.21,39.29 58.97,58.88 c 1.38,2.04 3.09,3.75 5.13,5.14 c 5.92,5.96 11.86,11.88 17.82,17.79 c 0.15,0.83 -0.22,1.31 -1.09,1.43 c -11.56,2.68 -23.24,4.66 -35.04,5.93 c -1.1,-0.07 -2.03,-0.5 -2.79,-1.3 c -19.08,-18.88 -38.1,-37.83 -57.05,-56.86 c -3.37,-1.89 -4.66,-5.04 -7.54,-7.42 c -1.41,-1.24 -2.8,-1.2 -4.16,0.11 c -21.52,21.29 -43.21,43.83 -65.05,64.63 c -2.36,1.43 -13.11,-1.41 -16.38,-1.35 c -7,-1.27 -14.19,-2.12 -20.95,-3.92 c -0.59,-0.61 -0.59,-1.26 -0.02,-1.93 c 1.96,-1.74 3.74,-3.64 5.32,-5.72 c 25.48,-24.4 49.85,-50.01 75.32,-74.51 c 1,-0.84 1.18,-1.82 0.54,-2.94 c -11.61,-11.02 -23.02,-22.46 -34.23,-33.82 c -23.05,-22.75 -46.06,-45.53 -69.04,-68.34 c -0.65,-0.14 -1.22,0.02 -1.7,0.47 c -8.44,8.57 -16.94,17.09 -25.5,25.54 c -5.81,5.83 -12.04,5.57 -19.47,2.8 c -2.95,-1.43 -11.32,-11.75 -13.47,-11.83 Z M 392.18,415.93 c 0.73,0.1 1.37,0.38 1.92,0.86 c -14.72,6.26 -33.64,14.33 -42.15,28.63 c -4.14,8.43 -3.01,13.14 1.15,20.76 c 17.58,22 59.94,30.08 86.41,35.68 c 76.06,12.67 156.4,12.35 231.91,-5.83 c 21.47,-6.96 37.03,-9.96 54.62,-25.55 c 2.07,-1.92 3.55,-4.91 5.07,-6.91 c 10.54,-21.66 -20.37,-36.7 -35.64,-43.76 c -2.47,-1.02 -4.93,-1.99 -7.39,-2.91 c -0.1,-1.33 2.91,-0.46 3.65,-0.58 c 30.99,6.17 63.49,14.62 89.21,34.24 c 27.11,24.04 13.03,42.63 -11.9,58.03 c -2.96,1.18 -5.73,2.71 -8.32,4.58 c -3.17,0.95 -14.25,5.71 -16.91,7.05 c -80.94,27.26 -167.25,30.46 -252.31,26.78 c -24.81,-1.21 -49.47,-3.77 -74,-7.66 c -3.3,0.41 -5.15,-1.98 -8.73,-0.75 c -3.07,-2.28 -21.65,-4.87 -26.8,-6 c -25.81,-6.55 -78.47,-19.99 -91.86,-45.09 c -10.58,-21.12 8.24,-35.29 23.8,-45.16 c 20.81,-11.08 40.01,-17.74 62.59,-22.93 c 5.21,-1.21 10.44,-2.37 15.68,-3.48 Z M 839.27,498 c -0.97,-10.52 15.69,-19.1 14.16,-33.54 c -0.51,-2.11 -3.4,-1.32 -4.94,-1.44 c -2.65,0.03 -6.85,2.6 -7.32,-1.69 c -0.9,-3.28 -1.49,-4.23 2.39,-5.04 c 4.84,-0.97 9.65,-0.89 14.43,0.26 c 7.08,3.88 4.51,17.82 0.44,23.42 c -2.6,4.22 -5.28,8.37 -8.05,12.47 c 0.25,0.39 0.6,0.58 1.08,0.57 c 3.62,-0.04 7.23,0.04 10.83,0.23 c 0.66,0.59 0.97,1.33 0.92,2.24 c -0.24,1.46 0.98,5.86 -1.69,5.55 c -7,0 -14.01,-0.03 -21.01,-0.08 c -1.68,0.01 -1.15,-1.88 -1.24,-2.95 Z M 869.16,479 c -0.05,-10.34 -0.07,-24.91 14.34,-23.35 c 14.7,-1.13 12.91,19.34 12.52,28.85 c -0.37,9.6 -2.92,18.45 -14.52,17.45 c -12.39,-0.56 -11.99,-13.69 -12.34,-22.95 Z M 902.06,460.03 c 0.16,-0.57 0.52,-0.94 1.07,-1.11 c 3.36,-0.72 9.29,-2.73 12.39,-3.02 c 0.58,0.01 1.01,0.26 1.29,0.76 c 1.05,12 1.22,23.76 1.24,35.8 c 0.25,0.61 0.7,0.95 1.36,1.01 c 4.34,-0.29 4.76,0.88 4.49,5.04 c 0.14,0.87 -0.06,1.64 -0.58,2.3 c -6.27,0.21 -12.55,0.27 -18.84,0.18 c -2.97,0.11 -2.07,-3.59 -2.23,-5.44 c -0.02,-4.29 6.71,-0.19 6.81,-3.04 c 0.09,-8.35 0.13,-16.71 0.11,-25.07 c 0.24,-3.16 -3.71,-0.44 -5.34,-1.72 c -0.74,-1.84 -1.34,-3.74 -1.77,-5.69 Z M 929.04,499.97 c 0.07,-0.76 0.26,-1.49 0.57,-2.19 c 4.81,-11.13 9.59,-22.27 14.31,-33.43 c 0.01,-0.91 -0.46,-1.36 -1.4,-1.34 c -3.34,0.02 -6.69,0.02 -10.04,0.01 c -1.21,0.08 -1.96,-0.45 -2.27,-1.59 c 0.1,-2.08 -1.27,-6.24 2.26,-5.86 c 6.35,-0.07 12.69,0.01 19.03,0.25 c 0.81,0.29 1.22,0.87 1.23,1.74 c 0.55,11.1 -11.01,31.55 -15.04,42.61 c -0.27,0.46 -0.68,0.71 -1.22,0.77 c -1.28,-0.16 -7.22,0.84 -7.43,-0.97 Z M 877.93,479 c 0.25,2.15 -0.83,13.96 2.63,13.7 c 5.43,0.51 6.82,-2.44 7.04,-7.25 c 0.26,-3.87 0.84,-18.15 -1.63,-20.8 c -9.81,-2.37 -7.78,8.24 -8.04,14.35 Z M 145.15,472 c -0.07,-1.05 0.03,-2.08 0.32,-3.09 c 1.14,-1.05 20.15,-0.9 21.45,0.7 c 2.4,10.37 -14.97,2.38 -14.5,6.89 c 0.24,2.34 0.42,4.68 0.53,7.02 c -0.06,3.86 13.88,-1.61 12.92,3.98 c 1.64,8.24 -13.39,0.84 -12.9,5.98 c -0.02,2.98 0.03,5.96 0.13,8.94 c 0.28,0.53 0.73,0.8 1.34,0.81 c 3.35,0 6.71,0 10.06,0 c 5.05,-0.77 4.82,7.3 0.01,6.78 c -5.68,0 -11.36,0 -17.04,-0.01 c -2.29,0.14 -2.41,-1.72 -2.33,-3.5 c 0.02,-11.5 0.02,-23 0.01,-34.5 Z M 172.03,503.98 c 0.56,-1.8 1.72,-3.01 3.48,-3.62 c 2.77,-0.11 11.63,8.56 13.51,0.06 c 1.67,-6.33 -6.97,-8.07 -10.54,-11.39 c -14.04,-11.38 -0.58,-27.65 15.11,-19.23 c 2.1,1.09 0.37,4.21 -0.73,5.4 c -3.84,0.48 -11.49,-5.12 -11.88,3.32 c 1.2,10.03 22.56,5.3 15.24,27.24 c -5.17,8.24 -20.6,5.92 -24.19,-1.78 Z M 200.75,472 c -0.32,-2.23 0.61,-3.42 2.8,-3.56 c 6.25,-0.03 12.5,-0.04 18.75,0 c 2.87,-0.16 3.99,1.13 3.36,3.87 c -1.1,5.21 -6.91,1.17 -8.5,3.33 c 0.3,10.61 0.44,21.23 0.43,31.86 c 0.01,0.83 -0.09,1.65 -0.31,2.45 c -0.66,1.67 -7.4,1.38 -7.41,-1.43 c -0.01,-10.93 -0.07,-21.86 -0.17,-32.79 c -1.6,-2.35 -9.25,2.02 -8.95,-3.73 Z M 229.97,507 c 0.02,-11.84 0.02,-23.67 0,-35.51 c 0.07,-1.23 -0.29,-3.32 1.58,-3.25 c 12.47,-1 24.48,-2.99 25.26,13.26 c 1.42,22.55 -1.13,33.13 -26.2,28.4 c -0.63,-0.85 -0.84,-1.82 -0.64,-2.9 Z M 237.85,501 c -0.65,4.12 3.03,2.82 5.66,2.93 c 7.67,-0.06 4.1,-22.73 3.42,-27.41 c -0.71,-3.48 -4.86,-2.27 -7.36,-2.28 c -0.84,0.06 -1.36,0.48 -1.57,1.29 c -0.14,8.48 -0.19,16.98 -0.15,25.47 Z M 777.23,520.83 c 0.29,0.35 0.57,0.71 0.85,1.08 c -11.94,12.67 -37.95,22.67 -53.89,28.51 c -0.6,-0.05 -1.19,-0.04 -1.78,0.02 c -21.92,6.73 -45.15,12.1 -68.01,15.25 c -2.55,0.78 -8.31,1.33 -10.92,1.49 c -94.58,11.95 -203.1,8.86 -294.22,-20.08 c -12.93,-5.63 -31.38,-12.16 -41.37,-22.17 c -0.67,-0.8 -1.29,-1.62 -1.86,-2.48 c 0.11,-0.45 0.41,-0.68 0.88,-0.67 c 9,4.21 19.02,8.26 28.34,11.58 c 85.18,25.11 182.68,26.11 271.25,22.39 c 53.24,-3.84 113.06,-9.21 161.94,-30.68 c 3.19,-1.51 5.2,-3.52 8.79,-4.24 Z M 283.81,644 c 0.12,-4.31 1.7,-7.19 3.98,-10.68 c 23.2,-22.71 45.71,-46.33 69.29,-68.54 c 5.13,-0.77 17.53,3.75 23.4,4.7 c 4.07,0.78 8.12,1.55 12.14,2.33 c 0.03,0.94 -0.3,1.74 -0.97,2.41 c -26.65,26.31 -53.21,52.73 -79.68,79.25 c -6.34,5.73 -12.53,8.77 -20.53,3.61 c -4.92,-2.99 -7.46,-7.35 -7.63,-13.08 Z M 689.86,573.01 c 1.14,-1.35 18.77,-4.84 21.71,-5.6 c 3.98,-1.03 7.97,-2.09 11.96,-3.19 c 0.87,-0.16 1.66,0.03 2.37,0.57 c 23.31,23 46.43,46.19 69.36,69.56 c 5.83,8.01 3.89,18.53 -5.02,23.22 c -12.97,9.02 -28.01,-12.12 -36.21,-20.1 c -20.79,-20.83 -41.69,-41.56 -62.7,-62.2 c -0.66,-0.65 -1.15,-1.4 -1.47,-2.26 Z M 165.26,776 c -0.02,-26.11 0.01,-52.22 0.09,-78.32 c 0.32,-4.85 7.21,-3.76 10.37,-3.1 c 2.61,0.57 3.83,2.19 3.68,4.87 c 1.63,22.4 1.78,44.45 1.8,66.9 c 0.58,0.7 1.34,1 2.28,0.89 c 5.67,-0.07 26.96,-3.15 25.21,6.22 c -0.39,3.45 -0.68,7.61 -5.18,7.53 c -11.98,0.06 -23.96,0.03 -35.94,-0.11 c -1.99,-1 -2.76,-2.63 -2.31,-4.88 Z M 314.04,776 c 0.01,-25.17 0.01,-50.33 0,-75.5 c -1.85,-8.49 14.81,-8.54 17.43,-1.76 c 3.4,8.67 6.77,17.34 10.14,26.02 c 0.46,1.37 1.14,1.53 2.02,0.49 c 3.92,-9.78 7.97,-19.5 12.16,-29.16 c 2.64,-3.47 14.34,-3.08 14.1,3.41 c 1.74,25.79 1.99,51.17 1.74,77 c -0.13,1.89 0.37,5.79 -2.28,6.14 c -2.96,0.46 -12.38,0.69 -13.42,-3.12 c -0.27,-16.94 -0.32,-33.88 -0.15,-50.82 c -0.48,-0.43 -0.9,-0.35 -1.27,0.22 c -1.82,3.8 -3.77,7.55 -5.85,11.22 c -0.58,0.62 -1.29,0.89 -2.14,0.83 c -2.1,-0.19 -8.06,0.42 -9.65,-0.4 c -2.07,-3.84 -4.19,-7.64 -6.38,-11.41 c -0.46,0.7 -0.63,1.47 -0.53,2.33 c 0.09,16.6 0.01,33.19 -0.25,49.77 c -2.14,2.98 -12.93,1.64 -15.12,-1.22 c -0.49,-1.3 -0.67,-2.65 -0.55,-4.04 Z M 382.97,702 c -0.62,-10.64 18.1,-11.92 16.03,2.5 c -1.42,8.39 -16.37,8.51 -16.03,-2.5 Z M 469.26,778 c 0,-27.14 0.01,-54.29 0.04,-81.43 c 0.21,-4.31 10.28,-2.27 12.83,-1.17 c 0.35,0.31 0.52,0.71 0.52,1.18 c 2.22,28.14 2.45,55.67 2.16,83.88 c -0.2,1.4 -1.01,2.17 -2.45,2.31 c -2.86,0.2 -10.6,0.09 -12.75,-1.77 c -0.3,-0.98 -0.42,-1.98 -0.35,-3 Z M 606.98,738 c -0.53,-26.54 3.54,-47.3 35.49,-43.77 c 4.6,0.24 8.86,1.54 12.78,3.92 c 2,2.58 -0.41,6.05 -1.23,8.67 c -0.94,1.63 -1.2,3.28 -3.52,2.98 c -9.16,-1.04 -22.63,-6.23 -24.27,7.4 c -1.01,9.59 -4.11,43.97 3.74,50.19 c 6.21,3.18 14.78,0.26 21.54,0.42 c 4.55,-0.57 3.68,4.77 3.56,7.69 c 1.09,10.27 -25.69,7.45 -31.56,5.35 c -16.78,-5.28 -16.18,-28.75 -16.53,-42.85 Z M 666.64,778 c -0.01,-27.18 0.02,-54.35 0.08,-81.52 c 0.06,-0.87 0.42,-1.56 1.09,-2.09 c 3.86,-0.68 7.64,-0.37 11.34,0.93 c 0.57,0.6 0.83,1.32 0.8,2.17 c 2.09,27.84 2.25,55.11 1.94,83.02 c -0.04,2.01 -1.8,2.14 -3.39,2.34 c -1.87,0.04 -10.16,-0.3 -11.34,-1.56 c -0.45,-1.05 -0.62,-2.15 -0.52,-3.29 Z M 855.8,702 c -0.84,-10.34 17.05,-11.92 16.13,1.5 c -1.81,10.26 -16.75,8.95 -16.13,-1.5 Z M 215.81,764 c -0.77,-13.79 12.96,-14.8 23.12,-17.33 c 1.04,-0.29 1.67,-0.96 1.9,-2.01 c 0.03,-10.02 -3.6,-11.24 -12.94,-9.49 c -1.43,0.11 -6.57,3.25 -7.67,2.07 c -1.85,-3.13 -4.63,-10.19 0.55,-11.64 c 8.19,-3.51 17.93,-3.45 26.17,-0.18 c 14.42,7.05 7.7,40.88 9.15,54.09 c 0.13,2.47 -1.07,3.59 -3.59,3.35 c -2.66,0.31 -5.18,-0.13 -7.56,-1.32 c -0.75,-0.71 -1.27,-3.33 -2.44,-3.31 c -1.81,1.09 -3.64,2.2 -5.47,3.33 c -2.99,1.35 -6.11,1.71 -9.35,1.08 c -10.94,-1.09 -11.85,-9.45 -11.87,-18.64 Z M 384.02,778 c -0.05,-17.81 0.02,-35.61 0.21,-53.4 c 0.78,-1.11 1.87,-1.62 3.26,-1.54 c 3.67,-0.12 7.28,0.25 10.85,1.12 c 0.92,0.89 1.29,2 1.1,3.32 c 0.07,18.02 -0.03,36.03 -0.3,54.03 c -0.19,0.49 -0.51,0.85 -0.97,1.09 c -4.23,0.44 -8.42,0.17 -12.58,-0.8 c -1.91,-0.33 -1.52,-2.39 -1.57,-3.82 Z M 487.06,748 c 0.9,-4.04 9.99,-19.31 12.8,-23.78 c 2.62,-1.98 8.05,-1.09 11.13,-0.7 c 1.59,0.32 3.82,0.53 2.57,2.76 c -1.99,3.37 -11.84,18.36 -11.51,21.1 c 5.5,11.3 10.98,22.61 16.43,33.94 c -0.4,0.89 -1.11,1.37 -2.13,1.44 c -3.14,0.17 -12.12,0.04 -14.44,-1.98 c -2.73,-6.18 -14.47,-27.76 -14.85,-32.78 Z M 524.8,773.01 c 0.76,-2.37 4.58,-8.14 7.55,-6.85 c 5.08,4.18 19.26,8.79 17.65,-2.64 c -2.84,-5.93 -20.36,-7.31 -23.8,-21.16 c -2.42,-20.69 19.32,-23.05 33.38,-15.57 c 2.79,1.87 0.77,6.11 0.29,8.72 c -0.25,1.97 -1.31,2.69 -3.17,2.15 c -3.77,-2.25 -7.83,-3.47 -12.2,-3.67 c -4,0.4 -5.44,2.53 -4.3,6.39 c 1.05,2.08 11.1,5.89 13.44,7.39 c 18.3,8.59 13.65,32.42 -5.16,35.02 c -7.52,0.79 -20.4,-2.07 -23.68,-9.78 Z M 693.13,752 c -0.06,-20.8 4.63,-31.91 27.87,-28.52 c 14.83,1.52 14.69,17.6 14.98,29.04 c 0.44,3.17 -4.51,2.74 -6.51,3.23 c -5.14,0.41 -15.26,-0.4 -19.73,0.45 c -0.11,0.13 -0.21,0.26 -0.32,0.38 c 0.62,4.21 -0.08,9.88 1.74,13.74 c 1.97,2.6 9.37,1.09 12.29,1.27 c 4.29,-0.26 8.54,-0.7 12.78,-1.3 c 1.14,0.96 0.83,6.66 0.67,8.2 c -0.45,4.51 -10.16,3.47 -13.4,4.21 c -24.95,2.27 -30.74,-7.04 -30.37,-30.7 Z M 746.81,764 c -0.77,-13.79 12.96,-14.8 23.12,-17.33 c 1.04,-0.29 1.67,-0.96 1.9,-2.01 c 0.03,-10.02 -3.6,-11.24 -12.94,-9.49 c -1.43,0.11 -6.57,3.25 -7.67,2.07 c -1.85,-3.13 -4.63,-10.19 0.55,-11.64 c 8.19,-3.51 17.93,-3.45 26.17,-0.18 c 14.42,7.05 7.7,40.88 9.15,54.09 c 0.13,2.47 -1.07,3.59 -3.59,3.35 c -2.66,0.31 -5.18,-0.13 -7.56,-1.32 c -0.75,-0.71 -1.27,-3.33 -2.44,-3.31 c -1.81,1.09 -3.64,2.2 -5.47,3.33 c -2.99,1.35 -6.11,1.71 -9.35,1.08 c -10.94,-1.09 -11.85,-9.45 -11.87,-18.64 Z M 799.04,778 c 0.01,-17.17 0.01,-34.34 0,-51.51 c -0.35,-4.48 4.54,-3.29 7.46,-3.38 c 6.42,-0.26 5.92,5.34 7.94,5.71 c 2.73,-1.52 5.52,-2.97 8.36,-4.36 c 11.15,-4.63 20.36,2.52 21.12,14.04 c 0.37,13.67 0.49,27.34 0.38,41.02 c 0.25,2.14 -0.69,3.24 -2.82,3.29 c -4,0.14 -7.96,-0.21 -11.87,-1.05 c -0.73,-0.18 -1.19,-0.64 -1.38,-1.36 c -0.11,-13.74 -0.23,-27.48 -0.35,-41.23 c -0.26,-1.4 -0.21,-5.37 -2.39,-5.15 c -2.73,0.17 -8.79,2.36 -10.11,4.75 c 0.03,14.25 -0.07,28.5 -0.3,42.74 c -0.99,2.78 -12.04,0.61 -14.47,0.27 c -1.89,-0.34 -1.52,-2.35 -1.57,-3.78 Z M 856.86,779 c -0.03,-18.16 0.02,-36.32 0.16,-54.48 c 0.02,-0.52 0.27,-0.9 0.72,-1.14 c 4.3,-0.56 8.57,-0.35 12.8,0.64 c 1.22,0.34 1.75,1.16 1.6,2.46 c 0.06,18.33 0,36.66 -0.19,54.99 c -0.83,2.75 -11.1,0.75 -13.4,0.42 c -1.34,-0.46 -1.9,-1.42 -1.69,-2.89 Z M 884.64,778 c 0.02,-17.17 0.02,-34.34 0,-51.51 c -0.06,-3.78 1.87,-3.31 4.86,-3.45 c 2.65,-0.23 5.14,0.29 7.45,1.56 c 0.77,1.51 1.67,2.91 2.71,4.2 c 2.79,-1.35 5.58,-2.76 8.37,-4.22 c 12.67,-5.26 21.34,3.6 21.63,16.09 c 0.25,12.94 0.34,25.89 0.27,38.84 c 0.15,2.38 -0.99,3.5 -3.43,3.33 c -3.95,0.06 -7.87,-0.32 -11.74,-1.15 c -0.47,-0.26 -0.76,-0.66 -0.87,-1.2 c -0.15,-12.82 -0.29,-25.65 -0.43,-38.48 c -0.52,-3.13 0.71,-9.88 -4.79,-7.6 c -1.66,0.58 -7.18,2.41 -7.6,4.13 c -0.14,13.65 -0.18,27.31 -0.12,40.97 c 0.29,1.96 -0.53,3.04 -2.49,3.23 c -4.28,0.23 -8.52,-0.11 -12.71,-1.03 c -1.3,-0.64 -1.08,-2.52 -1.11,-3.71 Z M 940.71,745 c -0.28,-4.88 0.36,-9.62 1.91,-14.23 c 5.38,-12.27 33.12,-6.27 43.89,-7.75 c 3.67,-0.27 3.9,4.17 2.46,6.52 c -1.87,0.85 -3.78,1.55 -5.71,2.13 c 1.06,2.68 1.83,5.45 2.3,8.31 c 1.68,19.07 -3.42,29.87 -23.88,29.26 c -1.05,0.82 -1.58,1.92 -1.59,3.29 c -0.2,0.85 0.03,1.53 0.69,2.04 c 8.07,0.89 24.43,-1.94 25.3,9.92 c 2.25,27.09 -17.22,24.81 -37.51,22.18 c -1.99,-0.22 -3.05,-1.34 -3.18,-3.37 c -0.29,-1.71 -0.54,-7.07 1.33,-8.03 c 4.57,0.49 9.16,0.78 13.78,0.88 c 7.01,0.31 13.83,1.22 11.26,-8.42 c -3.17,-3.39 -25.97,1.56 -25.42,-4.3 c -0.05,-0.96 0.02,-1.9 0.2,-2.84 c 0.33,-2.6 4.13,-11.31 3.76,-13.15 c -1.76,-1.34 -3.42,-2.8 -4.99,-4.4 c -4.18,-5.4 -4.54,-11.45 -4.6,-18.04 Z M 268.26,741 c -0.04,-2.74 0,-5.48 0.13,-8.22 c 0.25,-0.43 0.63,-0.65 1.14,-0.66 c 9.65,-0.07 19.31,-0.08 28.96,-0.01 c 1.49,0.12 2.38,0.9 2.7,2.36 c 0.14,3.36 0.18,6.73 0.13,10.11 c -0.01,0.64 -0.3,1.1 -0.86,1.39 c -9.97,0.16 -19.95,0.16 -29.92,0.01 c -2.19,-0.4 -2.46,-3.23 -2.28,-4.98 Z M 709.46,743 c 0.12,1.03 -0.4,3.56 1.15,3.69 c 3.21,0.13 6.42,0.12 9.63,-0.03 c 1.59,-0.85 -0.17,-8.41 -0.31,-10.15 c -0.06,-1.57 -0.85,-2.49 -2.37,-2.77 c -7.31,-0.1 -8.65,2.71 -8.1,9.26 Z M 955.76,744 c 0.2,4.17 -0.36,9.37 1.6,13.17 c 1.55,1.61 6.9,0.87 8.97,0.47 c 5.47,-2.68 4.36,-18.65 1.69,-23.11 c -2.12,-0.61 -4.3,-0.75 -6.52,-0.43 c -6.2,0.05 -5.66,5.29 -5.74,9.9 Z M 228.22,764 c 0.33,3.94 1.29,8.11 6.23,7.68 c 7,-0.26 6.3,-11.31 6.42,-16.08 c -0.62,-0.72 -1.41,-0.93 -2.35,-0.63 c -4.93,1.28 -9.99,3.17 -10.3,9.03 Z M 759.22,764 c 0.33,3.94 1.29,8.11 6.23,7.68 c 7,-0.26 6.3,-11.31 6.42,-16.08 c -0.62,-0.72 -1.41,-0.93 -2.35,-0.63 c -4.93,1.28 -9.99,3.17 -10.3,9.03 Z M 412.21,781.11 c 1.14,0.09 1.97,0.67 2.47,1.72 c 2.05,0.26 3.18,-0.05 5.15,1.03 c 2.45,0.06 9.98,2.49 9.96,5.65 c -0.51,2.78 -1.47,5.4 -2.88,7.86 c -4.45,3.94 -19.31,-9.79 -24.7,2.52 c -7.71,22.57 43.46,14.95 32.54,54.53 c -6.71,29.81 -54.81,12.27 -51.01,0.63 c 5.92,-9.28 8.69,-5.8 15.87,-1.13 c 15.24,9 25.47,-6.33 15.07,-16.1 c -13.42,-9.16 -33.29,-17.22 -29.51,-37.32 c 2.06,-14.24 13.36,-18.66 26.38,-18.51 c 0.81,0.05 1.03,-0.25 0.66,-0.88 Z M 598.97,790 c -0.62,-10.64 18.1,-11.92 16.03,2.5 c -1.42,8.39 -16.37,8.51 -16.03,-2.5 Z M 445.96,840 c -0.77,-21.78 6.22,-32.7 29.57,-28.17 c 12.45,2.63 14.56,19.72 12.92,30.21 c -0.78,1.22 -4.56,1.43 -5.98,1.69 c -6.61,0.01 -13.21,0.15 -19.8,0.41 c -0.47,0.71 -0.62,1.49 -0.46,2.35 c 0.19,3.22 0.49,6.44 0.9,9.64 c 0.28,2.1 1.46,3.3 3.55,3.59 c 7.26,0.18 14.48,-0.3 21.65,-1.45 c 2.2,0.93 2.28,8.94 -0.05,10.57 c -6.45,2.13 -21.03,2.72 -27.77,1.26 c -14.2,-2.42 -14.45,-18.77 -14.53,-30.1 Z M 500.26,866 c 0.01,-17.17 0.01,-34.33 0,-51.5 c -0.09,-2.21 0.99,-3.34 3.24,-3.39 c 1.95,-0.21 3.88,-0.08 5.79,0.4 c 3.1,0.49 2.91,7 5.74,4.93 c 5.85,-3.87 11.48,-7.91 18.29,-3.13 c 1.45,0.62 2.21,1.69 2.28,3.2 c -0.48,2.3 -1.1,4.57 -1.85,6.8 c -1.51,6.43 -8.01,-0.33 -12.14,0.75 c -1.46,0.51 -5.82,2.24 -6.47,3.6 c -0.18,13.27 -0.23,26.56 -0.16,39.85 c 0.27,1.96 -0.57,3.04 -2.51,3.24 c -2.07,0.15 -10.69,0.05 -11.87,-1.74 c -0.29,-0.98 -0.41,-1.98 -0.34,-3.01 Z M 541.87,812.96 c 0.06,-0.68 0.38,-1.2 0.96,-1.55 c 2.82,-0.44 5.65,-0.47 8.5,-0.08 c 1.94,0.15 3.78,0.64 5.52,1.45 c 3.15,12.2 6.15,24.45 9,36.74 c 0.13,0.58 0.31,1.13 0.56,1.67 c 0.92,1.01 1.51,0.79 1.77,-0.64 c 2.55,-12.67 5.24,-25.3 8.08,-37.91 c 1.23,-2.55 11.81,-1.91 13.44,0.1 c -4.46,18.58 -9.08,37.13 -13.88,55.64 c -1.45,4.62 -11.78,1.55 -15.3,1.46 c -0.72,-0.11 -1.33,-0.42 -1.84,-0.94 c -5.85,-18.57 -11.45,-37.21 -16.81,-55.94 Z M 600.02,866 c -0.05,-17.81 0.02,-35.61 0.21,-53.4 c 0.78,-1.11 1.87,-1.62 3.26,-1.54 c 3.67,-0.12 7.28,0.25 10.85,1.12 c 0.92,0.89 1.29,2 1.1,3.32 c 0.07,18.02 -0.03,36.03 -0.3,54.03 c -1.02,2.69 -11.18,0.68 -13.55,0.29 c -1.91,-0.33 -1.52,-2.39 -1.57,-3.82 Z M 626.89,840 c -0.5,-19.28 4.22,-30.58 25.61,-28.91 c 4.64,0.16 8.87,1.54 12.69,4.16 c 0.29,0.41 0.39,0.86 0.29,1.35 c -0.02,3.14 -0.91,6 -2.67,8.57 c -3.9,1.6 -18,-9.27 -19.82,3.4 c -1.05,7.56 -4.03,30.93 7.51,31.2 c 4.9,-0.21 9.76,-0.65 14.58,-1.31 c 1.52,1.06 1,6.34 0.89,8.04 c -0.1,1.06 -0.61,1.85 -1.53,2.36 c -25.46,6.7 -39.34,-1.76 -37.55,-28.86 Z M 675.78,840 c -0.52,-20.64 4.74,-31.85 27.51,-28.55 c 14.33,1.51 15.26,16.54 15.15,28.05 c 0.81,4.38 -4.13,3.75 -6.94,4.28 c -6.31,-0.01 -12.61,0.08 -18.91,0.27 c -1.65,1.36 0.24,11.5 0.87,13.8 c 1.35,3.23 9.25,1.54 12,1.77 c 4.29,-0.25 8.56,-0.69 12.8,-1.32 c 0.47,0.26 0.75,0.66 0.84,1.2 c 0.83,2.96 0.69,5.86 -0.41,8.7 c -5.22,3.61 -22.85,2.91 -29.18,1.75 c -13.63,-2.89 -13.66,-18.91 -13.73,-29.95 Z M 728.17,861 c 0.92,-2.18 4.47,-7.77 7.29,-6.98 c 2.06,1.39 4.21,2.61 6.46,3.67 c 6.54,3.53 16.04,-1.67 10.13,-8.12 c -13.06,-6.95 -29.79,-14.51 -19.53,-32.53 c 6.59,-8.62 34.35,-7.55 31.73,2.16 c -0.3,1.67 -0.72,7.74 -3.67,6.6 c -4.24,-2.09 -9.55,-4.7 -14.39,-3.54 c -10.96,4.85 7.37,11.83 10.74,13.41 c 20.88,9.67 12.13,37.34 -10.4,35.07 c -6.13,-0.03 -15.72,-3.85 -18.36,-9.74 Z M 462.16,831 c 0.22,1.14 -0.48,2.89 0.58,3.68 c 3.46,0.19 6.92,0.14 10.37,-0.15 c 1.11,-0.99 -0.18,-10.59 -1.14,-12 c -2.1,-1.85 -8.9,-0.49 -9.7,3.12 c -0.11,1.78 -0.15,3.56 -0.11,5.35 Z M 691.99,832 c -0.17,1.04 0.07,1.94 0.73,2.69 c 2.92,0.09 5.83,0.12 8.75,0.11 c 1.4,-0.08 1.99,-0.84 1.77,-2.27 c -0.1,-2.07 -0.23,-9.08 -1.9,-10.43 c -2.41,-0.56 -4.73,-0.31 -6.98,0.75 c -3.59,1.37 -2.02,6.2 -2.37,9.15 Z"/></g>
<g><path fill="#010101" stroke="#010101" stroke-width="0.5" d="M 419.83,783.86 c -1.97,-1.08 -3.1,-0.77 -5.15,-1.03 c -0.5,-1.05 -1.33,-1.63 -2.47,-1.72 c -0.31,-18.19 -0.41,-36.4 -0.32,-54.62 c -0.12,-2.47 1.08,-3.62 3.6,-3.43 c 3.02,-0.34 5.87,0.15 8.58,1.45 c 1.21,0.77 1.77,4.82 3.34,4.28 c 7.8,-4.51 14.49,-8.66 23.21,-3 c 9.74,7.52 6.46,43.44 6.28,55.66 c -1.12,2.78 -10.88,0.77 -13.41,0.55 c -2.13,-0.18 -2.98,-1.35 -2.55,-3.49 c -0.54,-12.69 1.1,-31.92 -1.19,-43.78 c -0.6,-0.57 -1.31,-0.8 -2.15,-0.69 c -1.91,0.23 -8.85,2.68 -9.37,4.57 c -0.08,14.28 -0.19,28.56 -0.32,42.84 c -1.36,2.93 -7.01,-0.18 -8.08,2.41 Z"/></g>
<g><path fill="#050505" stroke="#050505" stroke-width="0.5" d="M 211.3,323.4 c 5.49,1.04 21.88,-7.9 25.02,-13.7 c 3.66,-5.73 6.17,-11.21 8.23,-17.95 c 0.19,-0.63 0.55,-1.13 1.1,-1.49 c 0.98,3.69 2.28,7.3 3.89,10.81 c 5.95,13.87 15.9,19.36 30.03,22.73 c 1.12,0.27 1.41,0.88 0.89,1.83 c -8.52,-0.22 -20.73,7.72 -25.92,14.3 c -2.58,3.98 -4.75,8.18 -6.51,12.58 c -0.82,2.28 -1.53,4.58 -2.12,6.89 c -0.5,0.22 -0.85,0.05 -1.02,-0.5 c -4.54,-16.15 -11.63,-26.09 -27.72,-31.81 c -1.74,-0.71 -3.54,-1.19 -5.4,-1.45 c -0.45,-0.66 -0.61,-1.41 -0.47,-2.24 Z M 661.09,373.9 c -2.1,-2.45 -4.57,-2.77 -7.63,-3.09 c -0.77,-0.36 -0.94,-0.9 -0.52,-1.62 c 10.86,-1.77 16.69,-8.09 19.41,-18.48 c 0.57,-1.5 1.77,-0.57 2.01,0.53 c 1.85,6.49 5.17,12.59 11.52,15.58 c 2.66,0.93 5.3,1.9 7.91,2.89 c 0.15,0.49 0,0.85 -0.45,1.11 c -4.91,1.27 -9.23,3.61 -12.96,7.01 c -1.54,1.86 -2.87,3.86 -3.98,6.01 c -0.89,2.33 -1.82,4.63 -2.79,6.88 c -0.42,-0.1 -0.76,-0.33 -1.03,-0.67 c -2.51,-7.91 -4.42,-11.9 -11.49,-16.15 Z M 318.69,371.08 c 2.48,5.66 6.79,8.95 12.92,9.88 c 0.46,0.37 0.43,0.69 -0.11,0.98 c -6.57,0.99 -13.16,6.51 -13.7,13.44 c -0.55,0.73 -1.14,0.76 -1.78,0.1 c -0.4,-6.16 -6.42,-12.42 -12.58,-13.49 c -0.51,-0.32 -0.55,-0.67 -0.11,-1.06 c 5.96,-1.33 9.37,-4.68 11.78,-9.94 c 2.45,-3.47 1.41,-2.58 3.58,0.09 Z M 799.05,396.88 c 0.06,-0.61 0.33,-1.09 0.81,-1.46 c 13.14,-3.99 19.16,-10.31 22.17,-23.92 c 0.3,-0.51 0.64,-0.54 1,-0.1 c 1.77,8.41 5.81,16.21 13.55,20.5 c 3.15,1.3 6.31,2.56 9.47,3.77 c 0.13,0.56 -0.07,0.97 -0.61,1.23 c -10.59,3.5 -14.04,6.12 -19.62,15.56 c -1.06,2.85 -2.15,5.66 -3.29,8.44 c -1.23,-0.69 -0.57,-2.51 -1.21,-3.59 c -0.95,-2.15 -1.85,-4.32 -2.69,-6.51 c -3.92,-7.39 -11.54,-12.01 -19.58,-13.92 Z M 739.71,404 c 0.85,-9.88 15.28,-10.41 15.08,1.36 c -1.8,9.32 -14.48,8.06 -15.08,-1.36 Z M 400.81,455 c 0.74,-7.37 10.91,-7.58 11.55,0.5 c -0.55,7.93 -11.65,7.53 -11.55,-0.5 Z"/></g>
<g><path fill="#080808" stroke="#080808" stroke-width="0.5" d="M 753.33,337.72 c 0.06,-1.99 0.38,-3.95 0.97,-5.87 c 4.57,-5.88 14.03,-2.04 12.15,6.31 c -4.92,6.11 -8.72,3.65 -13.12,-0.44 Z M 237.98,429.85 c -1.28,-1.07 -2.76,-1.67 -4.43,-1.79 c -0.65,-0.7 -0.52,-1.28 0.39,-1.73 c 8.22,-2.2 11.58,-6.14 14.59,-13.76 c -0.16,-1.43 0.78,-4.81 2.58,-2.42 c 0.85,2.49 1.76,4.95 2.72,7.39 c 2.29,4.55 5.95,7.26 10.98,8.14 c 0.79,0.6 4.93,1.63 2.01,2.75 c -4.89,1.78 -10.27,4.31 -12.98,9.02 c -1.27,2.44 -2.44,4.92 -3.5,7.42 c -0.49,0.06 -0.84,-0.14 -1.07,-0.58 c -2.49,-7.34 -4.84,-10.32 -11.29,-14.44 Z"/></g>
<g><path fill="#585858" d="M 778.08,521.91 c -0.28,-0.37 -0.56,-0.73 -0.85,-1.08 c 0.1,-0.54 0.37,-0.97 0.81,-1.29 c 0.88,-0.57 1.79,-0.86 2.74,-0.86 c -0.34,1.52 -1.24,2.6 -2.7,3.23 Z"/></g>
</svg>
